<mxfile host="app.diagrams.net" modified="2024-02-22T09:22:43.295Z" agent="Mozilla/5.0 (Windows NT 10.0; Win64; x64) AppleWebKit/537.36 (KHTML, like Gecko) Chrome/121.0.0.0 Safari/537.36" etag="hK6jyvFZDxPz1q5tjg8P" version="23.1.4" type="device">
  <diagram name="Seite-1" id="HstTtl04XwhdvgVcIJdO">
    <mxGraphModel dx="1430" dy="786" grid="1" gridSize="10" guides="1" tooltips="1" connect="1" arrows="1" fold="1" page="1" pageScale="1" pageWidth="827" pageHeight="1169" math="0" shadow="0">
      <root>
        <mxCell id="0" />
        <mxCell id="1" parent="0" />
        <mxCell id="myiTS_FSy3hXaOzNeJer-1" value="" style="shape=ellipse;html=1;fillColor=strokeColor;strokeWidth=2;verticalLabelPosition=bottom;verticalAlignment=top;perimeter=ellipsePerimeter;" parent="1" vertex="1">
          <mxGeometry x="80" y="90" width="40" height="40" as="geometry" />
        </mxCell>
        <mxCell id="myiTS_FSy3hXaOzNeJer-2" value="Initialisierung des QR-Tracking-Systems" style="shape=rect;html=1;rounded=1;whiteSpace=wrap;align=center;" parent="1" vertex="1">
          <mxGeometry x="224" y="70" width="160" height="80" as="geometry" />
        </mxCell>
        <mxCell id="myiTS_FSy3hXaOzNeJer-3" value="Zugriffsanforderung auf die Kamera der Brille" style="shape=rect;html=1;rounded=1;whiteSpace=wrap;align=center;" parent="1" vertex="1">
          <mxGeometry x="464" y="70" width="160" height="80" as="geometry" />
        </mxCell>
        <mxCell id="myiTS_FSy3hXaOzNeJer-4" value="Einrichtung des QR-Trackings" style="shape=rect;html=1;rounded=1;whiteSpace=wrap;align=center;" parent="1" vertex="1">
          <mxGeometry x="464" y="210" width="160" height="80" as="geometry" />
        </mxCell>
        <mxCell id="myiTS_FSy3hXaOzNeJer-6" value="Starten des QR-Trackings" style="shape=rect;html=1;rounded=1;whiteSpace=wrap;align=center;" parent="1" vertex="1">
          <mxGeometry x="224" y="210" width="160" height="80" as="geometry" />
        </mxCell>
        <mxCell id="myiTS_FSy3hXaOzNeJer-7" value="Instanzierung des QRCode-Objekts" style="shape=rect;html=1;rounded=1;whiteSpace=wrap;align=center;" parent="1" vertex="1">
          <mxGeometry x="524" y="650" width="160" height="80" as="geometry" />
        </mxCell>
        <mxCell id="myiTS_FSy3hXaOzNeJer-8" value="Zuweisung des erkannten QR-Codes zum Objekt" style="shape=rect;html=1;rounded=1;whiteSpace=wrap;align=center;" parent="1" vertex="1">
          <mxGeometry x="524" y="525" width="160" height="80" as="geometry" />
        </mxCell>
        <mxCell id="myiTS_FSy3hXaOzNeJer-9" value="Aktualisierung der Eigenschaftenanzeige" style="shape=rect;html=1;rounded=1;whiteSpace=wrap;align=center;" parent="1" vertex="1">
          <mxGeometry x="224" y="650" width="160" height="80" as="geometry" />
        </mxCell>
        <mxCell id="myiTS_FSy3hXaOzNeJer-10" value="Erkennung eines QR-Codes" style="html=1;shape=mxgraph.sysml.accEvent;strokeWidth=2;whiteSpace=wrap;align=center;" parent="1" vertex="1">
          <mxGeometry x="229" y="350" width="150" height="70" as="geometry" />
        </mxCell>
        <mxCell id="myiTS_FSy3hXaOzNeJer-12" value="" style="shape=rhombus;html=1;verticalLabelPosition=bottom;verticalAlignment=top;" parent="1" vertex="1">
          <mxGeometry x="494" y="365" width="40" height="40" as="geometry" />
        </mxCell>
        <mxCell id="myiTS_FSy3hXaOzNeJer-14" value="[Nein]" style="edgeStyle=elbowEdgeStyle;html=1;elbow=vertical;verticalAlign=bottom;endArrow=open;rounded=0;labelBackgroundColor=none;endSize=12;exitX=1;exitY=0.5;exitDx=0;exitDy=0;" parent="1" source="myiTS_FSy3hXaOzNeJer-12" target="myiTS_FSy3hXaOzNeJer-8" edge="1">
          <mxGeometry relative="1" as="geometry">
            <mxPoint x="564" y="520" as="targetPoint" />
            <Array as="points">
              <mxPoint x="604" y="420" />
            </Array>
          </mxGeometry>
        </mxCell>
        <mxCell id="myiTS_FSy3hXaOzNeJer-15" value="[Ja]" style="edgeStyle=elbowEdgeStyle;html=1;elbow=vertical;verticalAlign=bottom;endArrow=open;rounded=0;labelBackgroundColor=none;endSize=12;entryX=0.5;entryY=0;entryDx=0;entryDy=0;" parent="1" source="myiTS_FSy3hXaOzNeJer-12" target="myiTS_FSy3hXaOzNeJer-9" edge="1">
          <mxGeometry relative="1" as="geometry">
            <mxPoint x="364" y="520" as="targetPoint" />
            <Array as="points">
              <mxPoint x="384" y="490" />
            </Array>
          </mxGeometry>
        </mxCell>
        <mxCell id="myiTS_FSy3hXaOzNeJer-16" value="" style="html=1;shape=mxgraph.sysml.actFinal;strokeWidth=2;verticalLabelPosition=bottom;verticalAlignment=top;" parent="1" vertex="1">
          <mxGeometry x="284" y="850" width="40" height="40" as="geometry" />
        </mxCell>
        <mxCell id="myiTS_FSy3hXaOzNeJer-17" value="" style="edgeStyle=none;html=1;endArrow=open;endSize=12;verticalAlign=top;labelBackgroundColor=none;rounded=0;exitX=1;exitY=0.5;exitDx=0;exitDy=0;" parent="1" source="myiTS_FSy3hXaOzNeJer-1" target="myiTS_FSy3hXaOzNeJer-2" edge="1">
          <mxGeometry width="160" relative="1" as="geometry">
            <mxPoint x="104" y="550" as="sourcePoint" />
            <mxPoint x="264" y="550" as="targetPoint" />
          </mxGeometry>
        </mxCell>
        <mxCell id="myiTS_FSy3hXaOzNeJer-18" value="" style="edgeStyle=none;html=1;endArrow=open;endSize=12;verticalAlign=top;labelBackgroundColor=none;rounded=0;" parent="1" source="myiTS_FSy3hXaOzNeJer-2" target="myiTS_FSy3hXaOzNeJer-3" edge="1">
          <mxGeometry width="160" relative="1" as="geometry">
            <mxPoint x="114" y="560" as="sourcePoint" />
            <mxPoint x="274" y="560" as="targetPoint" />
          </mxGeometry>
        </mxCell>
        <mxCell id="myiTS_FSy3hXaOzNeJer-19" value="" style="edgeStyle=none;html=1;endArrow=open;endSize=12;verticalAlign=top;labelBackgroundColor=none;rounded=0;" parent="1" source="myiTS_FSy3hXaOzNeJer-3" target="myiTS_FSy3hXaOzNeJer-4" edge="1">
          <mxGeometry width="160" relative="1" as="geometry">
            <mxPoint x="124" y="570" as="sourcePoint" />
            <mxPoint x="284" y="570" as="targetPoint" />
          </mxGeometry>
        </mxCell>
        <mxCell id="myiTS_FSy3hXaOzNeJer-20" value="" style="edgeStyle=none;html=1;endArrow=open;endSize=12;verticalAlign=top;labelBackgroundColor=none;rounded=0;" parent="1" source="myiTS_FSy3hXaOzNeJer-4" target="myiTS_FSy3hXaOzNeJer-6" edge="1">
          <mxGeometry width="160" relative="1" as="geometry">
            <mxPoint x="134" y="580" as="sourcePoint" />
            <mxPoint x="294" y="580" as="targetPoint" />
          </mxGeometry>
        </mxCell>
        <mxCell id="myiTS_FSy3hXaOzNeJer-21" value="" style="edgeStyle=none;html=1;endArrow=open;endSize=12;verticalAlign=top;labelBackgroundColor=none;rounded=0;" parent="1" source="myiTS_FSy3hXaOzNeJer-6" target="myiTS_FSy3hXaOzNeJer-10" edge="1">
          <mxGeometry width="160" relative="1" as="geometry">
            <mxPoint x="144" y="590" as="sourcePoint" />
            <mxPoint x="304" y="590" as="targetPoint" />
          </mxGeometry>
        </mxCell>
        <mxCell id="myiTS_FSy3hXaOzNeJer-22" value="" style="edgeStyle=none;html=1;endArrow=open;endSize=12;verticalAlign=top;labelBackgroundColor=none;rounded=0;" parent="1" source="myiTS_FSy3hXaOzNeJer-8" target="myiTS_FSy3hXaOzNeJer-7" edge="1">
          <mxGeometry width="160" relative="1" as="geometry">
            <mxPoint x="154" y="600" as="sourcePoint" />
            <mxPoint x="314" y="600" as="targetPoint" />
          </mxGeometry>
        </mxCell>
        <mxCell id="myiTS_FSy3hXaOzNeJer-23" value="" style="edgeStyle=none;html=1;endArrow=open;endSize=12;verticalAlign=top;labelBackgroundColor=none;rounded=0;" parent="1" source="myiTS_FSy3hXaOzNeJer-7" target="myiTS_FSy3hXaOzNeJer-9" edge="1">
          <mxGeometry width="160" relative="1" as="geometry">
            <mxPoint x="164" y="610" as="sourcePoint" />
            <mxPoint x="324" y="610" as="targetPoint" />
          </mxGeometry>
        </mxCell>
        <mxCell id="myiTS_FSy3hXaOzNeJer-24" value="" style="edgeStyle=none;html=1;endArrow=open;endSize=12;verticalAlign=top;labelBackgroundColor=none;rounded=0;" parent="1" source="myiTS_FSy3hXaOzNeJer-9" target="myiTS_FSy3hXaOzNeJer-16" edge="1">
          <mxGeometry width="160" relative="1" as="geometry">
            <mxPoint x="174" y="620" as="sourcePoint" />
            <mxPoint x="334" y="620" as="targetPoint" />
          </mxGeometry>
        </mxCell>
        <mxCell id="myiTS_FSy3hXaOzNeJer-25" value="Bereits instanziert?" style="edgeStyle=none;html=1;endArrow=open;endSize=12;verticalAlign=top;labelBackgroundColor=none;rounded=0;" parent="1" source="myiTS_FSy3hXaOzNeJer-10" target="myiTS_FSy3hXaOzNeJer-12" edge="1">
          <mxGeometry width="160" relative="1" as="geometry">
            <mxPoint x="234" y="470" as="sourcePoint" />
            <mxPoint x="394" y="470" as="targetPoint" />
          </mxGeometry>
        </mxCell>
      </root>
    </mxGraphModel>
  </diagram>
</mxfile>
